<svg width="430" height="478" viewBox="0 0 430 478" fill="none" xmlns="http://www.w3.org/2000/svg">
<path fill-rule="evenodd" clip-rule="evenodd" d="M184.655 1C184.655 2.301 188.351 2.301 189.155 1C189.506 0.433 188.665 0 187.214 0C185.807 0 184.655 0.45 184.655 1ZM201.655 1.5C200.28 2.286 197.834 2.945 196.22 2.965C194.606 2.984 190.331 4.526 186.72 6.39C183.109 8.255 178.58 10.249 176.655 10.821C173.528 11.751 166.215 14.388 152.666 19.471C150.197 20.397 147.947 21.507 147.666 21.938C146.498 23.727 140.028 26.199 128.937 29.091C119.739 31.49 114.195 32.287 103.655 32.724C87.709 33.385 88.556 33.395 81.913 32.461C75.516 31.561 66.112 33.315 59.199 36.699C51.53 40.452 42.003 42.387 38.445 40.913C36.335 40.039 35.244 40.011 34.443 40.812C33.038 42.217 32.819 54.832 34.184 55.783C35.155 56.46 36.976 64.606 39.71 80.5C40.372 84.35 41.992 93.054 43.309 99.842C45.667 111.994 45.675 112.233 43.835 115.342C42.807 117.079 41.35 120.075 40.598 122C39.846 123.925 38.231 126.588 37.009 127.918C35.787 129.249 34.496 131.499 34.139 132.918C33.783 134.338 31.416 137.488 28.88 139.919L24.268 144.338L23.376 141.663C21.245 135.271 20.656 141.724 20.666 171.309C20.677 203.432 20.877 205.419 25.079 215.25C25.961 217.313 27.136 219 27.691 219C28.246 219 30.645 217.207 33.022 215.015L37.345 211.031L38.449 214.765C39.056 216.819 39.82 221.425 40.147 225C40.473 228.575 41.16 233.975 41.673 237C43.897 250.108 43.968 252.592 42.196 255.297C41.172 256.86 40.749 258.722 41.139 259.951C41.57 261.308 41.345 262 40.472 262.001C38.965 262.003 33.218 266.698 33.03 268.081C32.961 268.587 32.849 269.927 32.78 271.059C32.711 272.191 32.318 272.91 31.905 272.655C31.492 272.4 31.13 275.299 31.099 279.096C31.068 282.893 31.363 286 31.754 286C32.145 286 32.233 287.727 31.95 289.837C31.619 292.308 32.009 294.783 33.045 296.788C35.12 300.8 35.081 302.967 32.905 304.566C31.24 305.789 31.242 305.999 32.946 308.899C34.605 311.722 34.618 312.127 33.125 314.406C31.861 316.334 31.755 317.318 32.631 318.955C33.339 320.277 33.501 323.24 33.073 327.022C32.505 332.04 32.645 333 33.943 333C34.793 333 35.751 332.438 36.072 331.75C36.392 331.063 36.49 332.924 36.289 335.886C36.065 339.172 36.514 342.778 37.44 345.136C38.877 348.794 40.506 350.191 40.78 348C40.849 347.45 40.961 346.588 41.03 346.083C41.291 344.17 42.655 343.753 42.666 345.583C42.672 346.637 42.934 349.3 43.249 351.5C43.677 354.492 43.552 355.122 42.753 354C42.029 352.982 41.681 352.902 41.67 353.75C41.662 354.438 40.642 355.059 39.405 355.132C37.905 355.219 38.322 355.509 40.655 356L44.155 356.737L40.238 356.868C35.804 357.017 36.219 358.392 40.768 358.621C42.405 358.703 44.559 359.508 45.555 360.409C46.565 361.324 48.093 361.769 49.01 361.417C49.915 361.07 50.655 361.212 50.655 361.732C50.655 362.973 46.158 364.996 43.358 365.015C42.146 365.024 40.533 365.425 39.773 365.906C38.686 366.594 38.845 366.926 40.514 367.455C41.682 367.826 43.06 367.868 43.577 367.548C44.094 367.229 44.77 367.378 45.08 367.879C45.39 368.38 44.979 369.045 44.167 369.357C43.12 369.759 42.862 370.787 43.283 372.889C43.837 375.66 43.608 375.934 39.784 377.079C37.419 377.788 35.445 379.085 35.106 380.154C34.784 381.17 33.65 382.467 32.587 383.036C31.522 383.606 30.655 385.121 30.655 386.413C30.655 387.701 29.955 389.336 29.098 390.047C27.716 391.195 27.828 391.585 30.098 393.536C33.102 396.117 33.306 396.994 30.905 397.015C29.622 397.027 29.497 397.247 30.435 397.843C31.464 398.496 31.431 399.204 30.264 401.452C29.466 402.99 29.028 404.809 29.291 405.493C29.553 406.178 28.85 408.372 27.729 410.369C26.607 412.366 26.079 414 26.555 414C28.066 414 28.564 418.105 27.372 420.723C26.353 422.958 26.531 423.489 28.939 425.409C30.433 426.601 31.655 428.021 31.655 428.565C31.655 429.674 28.763 432.346 25.984 433.805C23.43 435.146 9.92 437.302 7.705 436.723C6.699 436.46 5.354 436.568 4.715 436.963C4.077 437.357 6.84 438.183 10.855 438.798C17.175 439.766 20.719 440.425 22.655 440.994C22.93 441.075 22.255 441.527 21.155 442C19.626 442.657 20.214 442.88 23.655 442.945C30.82 443.081 33.064 445.866 27.155 447.287C25.576 447.667 25.734 447.819 27.905 448.009C32.146 448.381 32.437 448.448 33.238 449.25C33.651 449.663 32.804 450 31.357 450C29.749 450 28.309 450.778 27.655 452C26.791 453.614 26.895 454 28.191 454C29.642 454 29.647 454.15 28.249 455.549C27.397 456.401 24.209 457.503 21.163 457.999C18.118 458.494 15.23 459.145 14.746 459.444C14.262 459.743 11.313 460.171 8.193 460.394C3.028 460.764 -0.977003 462 2.988 462C3.905 462 4.655 462.626 4.655 463.39C4.655 464.45 6.5 464.803 12.405 464.875C55.224 465.398 65.326 465.67 66.384 466.328C67.06 466.749 68.41 466.68 69.384 466.175C72.234 464.7 89.655 464.035 89.655 465.402C89.655 466.142 91.084 466.417 93.655 466.171C95.855 465.962 97.655 465.387 97.655 464.895C97.655 464.403 98.357 464 99.214 464C100.071 464 100.495 464.45 100.155 465C99.432 466.169 103.291 466.216 112.837 465.154C116.512 464.745 119.298 464.768 119.028 465.205C118.758 465.642 118.965 466 119.489 466C120.013 466 120.7 465.325 121.017 464.5C121.396 463.513 122.959 463 125.592 463C128.763 463 129.471 463.316 129.008 464.522C128.512 465.816 129.244 465.948 133.889 465.402C138.695 464.837 139.6 465.025 141.4 466.957C142.966 468.638 144.21 469.033 146.702 468.64C148.493 468.358 150.264 467.633 150.637 467.029C151.01 466.426 152.021 466.203 152.884 466.534C153.747 466.865 154.75 466.656 155.113 466.068C156.082 464.5 160.655 464.748 160.655 466.369C160.655 467.894 165.376 468.919 173.155 469.084C177.204 469.17 175.682 469.647 165.155 471.59C158.005 472.91 147.475 474.457 141.755 475.029C136.034 475.601 130.634 476.519 129.755 477.068C128.183 478.05 171.422 477.64 181.655 476.576C185.464 476.179 185.694 476.246 183.155 477.007C180.148 477.909 195.852 477.549 205.655 476.491C208.898 476.141 209.596 476.265 208.155 476.932C206.84 477.542 212.663 477.884 225.156 477.93L244.158 478L256.156 473.942C269.831 469.316 280.921 465.048 281.655 464.127C283.112 462.3 289.462 459.909 300.655 456.973C312.895 453.762 313.634 453.69 336.155 453.526C357.704 453.368 364.744 452.786 367.155 450.962C367.705 450.546 371.564 449.034 375.73 447.603C383.714 444.86 390.506 444.251 392.368 446.113C394.241 447.986 395.39 446.279 396.105 440.555C396.598 436.604 396.372 434.169 395.291 431.792C393.785 428.482 391.763 419.486 389.607 406.5C388.968 402.65 387.617 395.45 386.605 390.5C385.593 385.55 384.472 380.007 384.116 378.183C383.666 375.884 383.93 374.349 384.977 373.183C385.808 372.257 387.291 369.475 388.273 367C389.255 364.525 391.063 361.412 392.291 360.082C393.518 358.751 394.811 356.515 395.163 355.111C395.516 353.707 397.901 350.578 400.464 348.157C404.831 344.032 405.157 343.892 405.64 345.936C405.923 347.136 406.605 348.092 407.155 348.06C407.793 348.022 408.251 336.804 408.419 317.086L408.683 286.171L405.867 278.401C404.318 274.128 402.553 270.466 401.944 270.263C401.335 270.06 398.947 271.804 396.636 274.138L392.435 278.381L391.045 275.076C390.28 273.258 389.655 270.044 389.655 267.934C389.655 265.825 389.235 261.939 388.721 259.299C388.207 256.66 387.223 250.766 386.533 246.203C385.4 238.705 385.448 237.621 387.031 234.941C388.041 233.231 388.515 231.135 388.151 229.988C387.74 228.691 387.978 228 388.838 227.999C392.185 227.996 396.115 222.764 396.581 217.691C396.622 217.246 396.992 217.09 397.405 217.345C397.818 217.599 398.208 214.701 398.273 210.904C398.339 207.107 398.091 204 397.724 204C397.357 204 397.234 202.484 397.45 200.632C397.669 198.752 397.139 195.902 396.249 194.182C394.19 190.2 394.233 188.03 396.405 186.434C398.07 185.211 398.068 185.001 396.364 182.101C394.705 179.278 394.692 178.873 396.185 176.594C397.46 174.649 397.56 173.69 396.661 172.011C395.95 170.683 395.774 167.896 396.19 164.565C396.871 159.116 395.443 156.185 393.538 159.122C392.966 160.004 392.696 158.339 392.789 154.5C392.976 146.787 391.412 142.625 388.654 143.5C387.555 143.849 386.623 143.767 386.585 143.317C386.546 142.868 386.305 140.25 386.049 137.5C385.714 133.902 385.869 132.921 386.604 134C387.291 135.01 387.629 135.092 387.64 134.25C387.648 133.563 388.667 132.941 389.905 132.868C391.405 132.781 390.988 132.491 388.655 132L385.155 131.263L388.964 131.132C391.123 131.057 392.515 130.583 392.178 130.037C391.831 129.476 388.673 129.315 384.619 129.651C378.703 130.141 377.655 129.991 377.655 128.653C377.655 126.317 381.664 123.01 384.594 122.93C386.002 122.891 388.055 122.508 389.155 122.078C391.093 121.32 391.086 121.274 388.914 120.583C387.681 120.192 386.25 120.132 385.733 120.452C385.216 120.771 384.505 120.567 384.154 119.998C383.802 119.428 385.008 118.314 386.834 117.521C389.681 116.284 389.824 116.073 387.835 116.039C386.011 116.008 385.584 115.52 385.835 113.75C386.071 112.094 387.127 111.26 389.837 110.59C392.421 109.952 393.688 109.003 394.089 107.407C394.403 106.156 395.559 104.848 396.657 104.499C397.937 104.093 398.655 102.986 398.655 101.419C398.655 100.074 399.199 98.101 399.865 97.036C400.885 95.403 400.728 94.798 398.865 93.182C396.199 90.87 396.075 90.005 398.405 89.985C399.688 89.973 399.813 89.753 398.875 89.157C397.846 88.504 397.879 87.796 399.046 85.548C399.844 84.01 400.282 82.191 400.019 81.507C399.757 80.822 400.46 78.628 401.581 76.631C402.703 74.634 403.231 73 402.755 73C401.244 73 400.746 68.895 401.938 66.277C402.957 64.042 402.779 63.511 400.371 61.591C397.19 59.054 397.088 58.259 399.567 55.289C401.593 52.862 412.861 50.002 420.405 50.001C422.742 50 424.655 49.55 424.655 49C424.655 48.45 422.968 47.981 420.905 47.958C416.006 47.902 406.919 45.76 406.491 44.559C406.306 44.042 404.876 43.479 403.313 43.308C401.75 43.137 399.725 42.578 398.813 42.066C397.394 41.269 397.372 41.066 398.655 40.663C403.828 39.038 404.187 38.601 400.655 38.228C396.045 37.74 394.243 36 398.348 36C401.66 36 403.717 33.345 401.164 32.365C397.067 30.793 406.512 27.741 420.339 26.169C426.019 25.523 430.22 24 426.322 24C425.405 24 424.655 23.374 424.655 22.61C424.655 21.55 422.81 21.197 416.905 21.125C412.643 21.073 398.805 20.8 386.155 20.518C357.943 19.89 361.997 19.848 350.155 20.888C344.375 21.396 340.014 21.394 339.822 20.883C339.359 19.657 331.655 19.767 331.655 21C331.655 21.55 330.953 22 330.096 22C329.239 22 328.815 21.55 329.155 21C329.878 19.831 326.019 19.784 316.473 20.846C312.798 21.255 310.012 21.232 310.282 20.795C310.552 20.358 310.327 20 309.781 20C309.236 20 308.537 20.788 308.228 21.75C307.828 22.997 306.505 23.544 303.624 23.652C300.063 23.787 299.655 23.576 300.191 21.885C300.757 20.104 300.409 20.011 295.379 20.603C290.634 21.16 289.704 20.969 287.934 19.069C285.765 16.741 282.018 16.624 279.392 18.803C278.576 19.48 277.222 19.771 276.383 19.449C275.544 19.127 274.56 19.344 274.197 19.932C273.262 21.445 268.655 21.263 268.655 19.713C268.655 18.173 266.243 17.695 257.905 17.584C254.468 17.538 251.655 17.235 251.655 16.911C251.655 16.587 255.593 15.741 260.405 15.03C265.218 14.32 270.142 13.368 271.349 12.915C272.556 12.462 279.005 11.618 285.68 11.038C298.092 9.96 301.655 8.965 301.655 6.573C301.655 5.132 297.168 3.565 295.678 4.486C295.191 4.787 294.506 4.568 294.155 4C293.804 3.432 293.1 3.225 292.59 3.54C290.104 5.077 273.23 6.473 271.331 5.3C269.673 4.275 280.349 2.099 287.655 1.972C291.23 1.91 295.055 1.462 296.155 0.976C298.926 -0.248 263.744 0.5 256.155 1.826C248.424 3.178 239.783 5.348 231.816 7.939C228.329 9.072 224.054 9.981 222.316 9.958C219.483 9.92 219.77 9.66 225.075 7.458C228.331 6.106 231.992 5 233.21 5C235.152 5 240.239 3.67 248.655 0.962C250.073 0.506 240.984 0.139 227.655 0.114C209.055 0.08 203.634 0.369 201.655 1.5ZM176.114 5.067C175.048 6.791 175.982 6.934 178.657 5.454C181.066 4.12 181.077 4.07 178.964 4.035C177.759 4.016 176.476 4.48 176.114 5.067ZM267.655 5.465C267.655 6.398 264.049 7.785 259.786 8.492C256.364 9.059 255.512 8.928 255.86 7.886C256.104 7.154 257.395 6.25 258.729 5.877C261.591 5.078 267.655 4.797 267.655 5.465ZM343.963 9.75C344.379 12.787 345.284 12.911 353.655 11.081L358.155 10.097L351.9 10.352C346.268 10.582 345.702 10.427 346.217 8.803C346.606 7.578 346.277 7 345.188 7C344.016 7 343.688 7.738 343.963 9.75ZM162.798 8.89C161.947 9.43 161.82 9.984 162.458 10.378C163.829 11.226 166.785 10.019 166.09 8.895C165.404 7.784 164.546 7.783 162.798 8.89ZM252.655 9C251.28 9.44 248.58 9.792 246.655 9.782L243.155 9.763L246.155 9C247.805 8.58 250.505 8.228 252.155 8.218C255.066 8.2 255.081 8.223 252.655 9ZM217.384 10.604C217.052 10.936 216.189 10.972 215.468 10.683C214.67 10.364 214.907 10.127 216.072 10.079C217.126 10.036 217.716 10.272 217.384 10.604ZM241.655 11C240.83 11.533 239.233 11.976 238.105 11.985C236.977 11.993 235.627 12.397 235.105 12.883C234.583 13.369 231.905 14.031 229.155 14.355C226.405 14.678 224.83 14.698 225.655 14.398C226.48 14.099 228.055 13.452 229.155 12.962C232.227 11.592 237.878 10.189 240.655 10.106C242.622 10.047 242.835 10.237 241.655 11ZM158.734 12.583C158.782 13.748 159.019 13.985 159.338 13.188C159.627 12.466 159.591 11.603 159.259 11.271C158.927 10.939 158.691 11.529 158.734 12.583ZM209.655 13C209.655 13.55 208.868 13.993 207.905 13.985C206.409 13.972 206.373 13.828 207.655 13C209.542 11.78 209.655 11.78 209.655 13ZM223.384 15.604C223.052 15.936 222.189 15.972 221.468 15.683C220.67 15.364 220.907 15.127 222.072 15.079C223.126 15.036 223.716 15.272 223.384 15.604ZM312.468 15.683C313.189 15.972 314.052 15.936 314.384 15.604C314.716 15.272 314.126 15.036 313.072 15.079C311.907 15.127 311.67 15.364 312.468 15.683ZM289.155 18C288.815 18.55 289.265 19 290.155 19C291.045 19 291.495 18.55 291.155 18C290.815 17.45 290.365 17 290.155 17C289.945 17 289.495 17.45 289.155 18ZM243.905 19.662C243.218 19.94 242.093 19.94 241.405 19.662C240.718 19.385 241.28 19.158 242.655 19.158C244.03 19.158 244.593 19.385 243.905 19.662ZM284.155 20C284.495 20.55 284.045 21 283.155 21C282.265 21 281.815 20.55 282.155 20C282.495 19.45 282.945 19 283.155 19C283.365 19 283.815 19.45 284.155 20ZM348.919 19.718C350.439 19.947 352.689 19.941 353.919 19.704C355.149 19.467 353.905 19.279 351.155 19.286C348.405 19.294 347.399 19.488 348.919 19.718ZM323.655 23.107C323.655 23.598 322.755 24 321.655 24C319.706 24 319.049 22.939 320.253 21.736C321.054 20.934 323.655 21.983 323.655 23.107ZM326.655 22C326.655 22.55 326.178 23 325.596 23C325.014 23 324.815 22.55 325.155 22C325.495 21.45 325.971 21 326.214 21C326.457 21 326.655 21.45 326.655 22ZM336.384 21.604C336.052 21.936 335.189 21.972 334.468 21.683C333.67 21.364 333.907 21.127 335.072 21.079C336.126 21.036 336.716 21.272 336.384 21.604ZM427.468 21.683C428.189 21.972 429.052 21.936 429.384 21.604C429.716 21.272 429.126 21.036 428.072 21.079C426.907 21.127 426.67 21.364 427.468 21.683ZM404.655 35C404.655 35.55 405.105 36 405.655 36C406.205 36 406.655 35.55 406.655 35C406.655 34.45 406.205 34 405.655 34C405.105 34 404.655 34.45 404.655 35ZM367.655 139C365.716 140.253 364.655 140.253 364.655 139C364.655 138.45 365.667 138.007 366.905 138.015C368.724 138.028 368.868 138.216 367.655 139ZM23.155 452C23.495 452.55 23.971 453 24.214 453C24.457 453 24.655 452.55 24.655 452C24.655 451.45 24.178 451 23.596 451C23.014 451 22.815 451.45 23.155 452ZM108.961 462.639C110.026 463.704 108.691 464.951 107.129 464.352C106.324 464.043 105.915 463.388 106.22 462.895C106.868 461.846 108.057 461.735 108.961 462.639ZM104.655 463.441C104.655 463.684 104.205 464.16 103.655 464.5C103.105 464.84 102.655 464.641 102.655 464.059C102.655 463.477 103.105 463 103.655 463C104.205 463 104.655 463.198 104.655 463.441ZM0.466997 464.683C1.189 464.972 2.052 464.936 2.384 464.604C2.716 464.272 2.126 464.036 1.072 464.079C-0.0930035 464.127 -0.330003 464.364 0.466997 464.683ZM95.384 464.604C95.052 464.936 94.189 464.972 93.468 464.683C92.67 464.364 92.907 464.127 94.072 464.079C95.126 464.036 95.716 464.272 95.384 464.604ZM147.655 465.441C147.655 466.496 145.736 466.94 145.165 466.016C144.82 465.457 145.239 465 146.096 465C146.953 465 147.655 465.198 147.655 465.441ZM75.919 466.718C77.439 466.947 79.689 466.941 80.919 466.704C82.149 466.467 80.905 466.279 78.155 466.286C75.405 466.294 74.399 466.488 75.919 466.718ZM188.384 466.604C188.052 466.936 187.189 466.972 186.468 466.683C185.67 466.364 185.907 466.127 187.072 466.079C188.126 466.036 188.716 466.272 188.384 466.604ZM137.655 468C137.655 468.55 138.105 469 138.655 469C139.205 469 139.655 468.55 139.655 468C139.655 467.45 139.205 467 138.655 467C138.105 467 137.655 467.45 137.655 468ZM115.468 470.683C116.189 470.972 117.052 470.936 117.384 470.604C117.716 470.272 117.126 470.036 116.072 470.079C114.907 470.127 114.67 470.364 115.468 470.683ZM208.384 470.604C208.052 470.936 207.189 470.972 206.468 470.683C205.67 470.364 205.907 470.127 207.072 470.079C208.126 470.036 208.716 470.272 208.384 470.604ZM203.655 471.652C202.83 471.924 201.255 472.526 200.155 472.99C196.377 474.583 193.523 474.895 193.927 473.671C194.14 473.027 195.853 472.222 197.734 471.882C202.014 471.108 205.746 470.963 203.655 471.652ZM222.384 472.604C222.052 472.936 221.189 472.972 220.468 472.683C219.67 472.364 219.907 472.127 221.072 472.079C222.126 472.036 222.716 472.272 222.384 472.604ZM269.734 473.583C269.782 474.748 270.019 474.985 270.338 474.188C270.627 473.466 270.591 472.603 270.259 472.271C269.927 471.939 269.691 472.529 269.734 473.583ZM81.427 473.561C81.227 473.761 79.09 474.173 76.679 474.476C69.884 475.33 70.418 476.265 77.437 475.803C82.317 475.482 83.608 475.681 83.219 476.695C82.943 477.413 83.376 478 84.18 478C86.194 478 85.453 473.734 83.386 473.431C82.509 473.302 81.628 473.361 81.427 473.561ZM192.196 474.933C191.834 475.52 190.349 476 188.896 476C185.979 476 186.851 474.463 190.155 473.781C192.592 473.278 193.057 473.54 192.196 474.933ZM263.915 475.485C262.486 477.108 263.753 478.283 266.002 477.42C266.842 477.098 267.284 476.197 266.985 475.417C266.309 473.656 265.509 473.674 263.915 475.485ZM214.384 475.604C214.052 475.936 213.189 475.972 212.468 475.683C211.67 475.364 211.907 475.127 213.072 475.079C214.126 475.036 214.716 475.272 214.384 475.604Z" fill="#E22163"/>
</svg>
