<svg width="376" height="68" viewBox="0 0 376 68" fill="none" xmlns="http://www.w3.org/2000/svg">
<path fill-rule="evenodd" clip-rule="evenodd" d="M128.44 1.08985C126.719 1.59592 120.304 2.80265 114.184 3.77039C103.959 5.38786 101.312 5.54131 81.5005 5.66407C61.0406 5.7901 53.3266 6.33862 48.6807 7.99788C47.63 8.37269 43.6739 9.1145 39.8895 9.64538C34.576 10.3918 32.4662 10.444 30.629 9.87458C28.814 9.31235 28.008 9.32476 27.2327 9.92878C25.9038 10.9644 25.8488 16.8224 27.1617 17.5479C27.6812 17.8352 28.5059 19.2248 28.9948 20.6366C29.8237 23.0278 29.7778 23.2838 28.321 24.3913C27.4614 25.0449 26.3231 25.5798 25.7918 25.5798C25.2605 25.5798 24.8259 26.1766 24.8259 26.906C24.8259 27.636 24.3565 28.402 23.7828 28.6083C22.1563 29.1947 22.5408 30.0201 24.9998 31.219C26.2431 31.8243 26.869 32.444 26.3905 32.5962C25.9128 32.7477 25.5213 33.2564 25.5213 33.7265C25.5213 34.1973 25.0519 34.7511 24.4782 34.9581C23.8934 35.1683 23.4351 36.14 23.4351 37.1691C23.4351 38.2491 22.8684 39.388 22.0582 39.9358C20.7822 40.7997 20.7606 40.9813 21.7655 42.4211C22.7557 43.8401 22.7453 44.081 21.6493 45.2186C20.4978 46.4135 20.5499 46.5017 22.9859 47.457C25.5811 48.4757 25.8822 48.8773 24.9893 50.1323C23.6027 52.0828 15.2183 53.6585 6.23176 53.6585C0.684596 53.6585 0.75205 54.0105 6.39796 54.5303C13.8178 55.2126 17.1766 55.7827 17.1766 56.3593C17.1766 56.6695 18.3504 56.9405 19.7843 56.9613C21.2189 56.9816 23.6437 57.2245 25.1736 57.5001L27.9552 58.0016L24.1305 58.6911L20.3058 59.38L23.4351 59.4682C27.7236 59.5877 29.725 60.8179 25.6541 60.8316C23.8593 60.8375 22.828 61.1 23.0826 61.4873C23.3259 61.8568 23.0471 61.9666 22.4282 61.7439C21.8343 61.5297 21.3489 61.6799 21.3489 62.0776C21.3489 62.4752 22.3656 62.8344 23.609 62.8762C25.1075 62.9265 25.4003 63.0616 24.4782 63.2784C23.7133 63.458 22.931 63.8276 22.7397 64.0999C22.5485 64.3722 20.0451 64.7568 17.1766 64.9547C14.3081 65.1519 10.3026 65.6246 8.27622 66.0053C6.24914 66.3854 4.37158 66.6668 4.10385 66.6302C3.83543 66.5937 2.6776 66.6074 1.5302 66.6609C-0.277829 66.7452 -0.388397 66.8496 0.699895 67.4439C1.95925 68.1321 92.4801 67.9219 96.6254 67.2212C97.6768 67.0436 98.5377 67.1148 98.5377 67.3792C98.5377 67.6437 133.507 67.9075 176.248 67.965C251.244 68.0655 254.14 68.025 259.174 66.7961C262.042 66.0954 266.736 65.1806 269.605 64.7627C272.473 64.3448 276.698 63.7035 278.992 63.3385C281.287 62.9735 293.179 62.5758 305.417 62.4543C327.965 62.2317 328.908 62.1487 342.273 59.2325C346.849 58.234 352.82 57.8912 357.572 58.3529C359.64 58.554 359.66 58.5246 359.874 54.9841C360.024 52.4949 359.795 51.2085 359.12 50.7396C358.185 50.0919 357.051 47.201 356.934 45.1696C356.902 44.6309 357.887 43.7493 359.121 43.2106C360.356 42.6719 361.373 41.7525 361.381 41.168C361.39 40.5836 362.101 39.6537 362.961 39.1026L364.526 38.1003L361.744 36.9458C359.774 36.1282 359.32 35.7162 360.188 35.534C360.862 35.3916 361.242 35.0149 361.032 34.6962C360.822 34.3769 361.281 33.5247 362.051 32.8012C362.821 32.0784 363.294 31.1021 363.103 30.6326C362.911 30.1625 363.333 29.1947 364.041 28.481C365.337 27.1744 365.29 25.6346 363.928 24.8033C363.447 24.5101 363.633 23.8944 364.462 23.0337C365.71 21.7401 365.685 21.6925 363.217 20.5876C361.833 19.9679 360.701 19.2431 360.701 18.976C360.701 17.8085 364.436 15.9011 367.473 15.5165C374.743 14.5957 376 14.3411 376 13.7912C376 13.4758 374.442 13.024 372.536 12.7863C370.632 12.5492 369.241 12.098 369.448 11.7846C369.655 11.4705 368.632 11.21 367.175 11.2047C361.862 11.1871 359.226 9.59053 363.657 9.07401C365.418 8.86897 365.197 8.788 362.655 8.70637C358.808 8.58296 357.306 7.29591 361.008 7.29591C362.369 7.29591 363.483 6.98443 363.483 6.60439C363.483 6.22434 363.796 6.0944 364.178 6.31641C364.561 6.53843 364.874 6.40849 364.874 6.02844C364.874 5.6484 363.857 5.30297 362.614 5.26118C361.115 5.2109 360.822 5.07573 361.744 4.85893C362.509 4.67936 363.292 4.31172 363.483 4.04138C363.674 3.77104 366.49 3.37141 369.741 3.15266C372.992 2.9339 375.73 2.74845 375.826 2.73996C375.922 2.73148 376 2.11178 376 1.36215V0L334.102 0.316702C311.059 0.491052 291.345 0.784246 290.295 0.968391C289.245 1.15254 288.234 1.07222 288.049 0.790123C287.862 0.507377 252.579 0.252056 209.639 0.222671C144.279 0.177614 131.059 0.318661 128.44 1.08985Z" fill="#F6F6F6"/>
</svg>
