<svg width="1248" height="450" viewBox="0 0 1248 450" fill="none" xmlns="http://www.w3.org/2000/svg">
<path fill-rule="evenodd" clip-rule="evenodd" d="M643.485 23.3297C574.078 33.8884 503.131 48.3613 439.654 64.9122C403.983 74.2122 349.012 91.141 324.541 100.362C311.146 105.409 309.794 106.366 310.24 110.47C310.689 114.597 309.42 115.479 296.118 120.288C135.332 178.407 33.2107 241.947 6.33893 300.587C-3.7887 322.688 0.284805 351.056 16.2216 369.438C39.7906 396.618 72.7455 413.361 131.133 427.822C186.093 441.433 255.111 448.467 339.759 449.083C455.673 449.927 597.638 436.845 720.951 413.958C861.034 387.958 970.121 345.051 1072.5 290.56C1179.23 233.756 1240.49 167.903 1247.52 105.437C1249.5 87.825 1238.32 65.5587 1205 47.4535C1159.93 22.9703 1095.63 7.59202 1003.95 2.37138C944.455 -1.01591 897.815 -0.674831 824.556 3.68725C780.669 6.30005 692.694 15.8435 643.485 23.3297ZM839.383 12.3103C902.295 9.5227 948.695 10.4316 1000.28 15.4617C1070.25 22.2847 1155.01 26.2448 1193.57 48.6967C1283.95 101.334 1230.15 189.815 1058.84 286.374C950.27 347.571 759.129 401.159 577.889 424.318C526.582 430.875 520.125 431.511 468.738 435.072C380.092 441.216 274.455 439.652 218.087 431.361C148.111 421.068 83.096 402.569 50.0705 380.996C26.7902 365.79 16.4299 339.892 15.5111 331.442C9.1237 272.701 163.205 167.592 351.523 111.909C368.479 106.895 393.713 99.9238 407.598 96.4183C421.482 92.9116 433.532 89.6844 434.376 89.2449C438.119 87.2972 397.407 94.3845 369.137 100.602C352.051 104.359 337.559 107.311 336.926 107.162C334.97 106.703 395.072 89.1668 434.719 78.6303C509.129 58.8548 588.028 42.1721 656.689 31.6968C672.476 29.2883 688.973 26.7075 693.35 25.9605C710.898 22.9669 811.857 13.5306 839.383 12.3103Z" fill="#FEC859"/>
</svg>
